<?xml version="1.0" encoding="utf-8" ?>
<svg baseProfile="full" height="100%" version="1.1" width="100%" xmlns="http://www.w3.org/2000/svg" xmlns:ev="http://www.w3.org/2001/xml-events" xmlns:xlink="http://www.w3.org/1999/xlink"><defs /><rect fill="grey" height="20" width="20" x="0" y="0" /><rect fill="grey" height="20" width="20" x="20" y="0" /><rect fill="grey" height="20" width="20" x="40" y="0" /><rect fill="grey" height="20" width="20" x="60" y="0" /><rect fill="grey" height="20" width="20" x="80" y="0" /><rect fill="grey" height="20" width="20" x="100" y="0" /><rect fill="grey" height="20" width="20" x="120" y="0" /><circle cx="150.0" cy="10.0" fill="#00FF00" r="10.0" /><rect fill="grey" height="20" width="20" x="160" y="0" /><rect fill="grey" height="20" width="20" x="180" y="0" /><rect fill="grey" height="20" width="20" x="200" y="0" /><rect fill="grey" height="20" width="20" x="220" y="0" /><rect fill="grey" height="20" width="20" x="240" y="0" /><rect fill="grey" height="20" width="20" x="260" y="0" /><rect fill="grey" height="20" width="20" x="280" y="0" /><rect fill="grey" height="20" width="20" x="300" y="0" /><rect fill="black" height="20" width="20" x="320" y="0" /><rect fill="grey" height="20" width="20" x="340" y="0" /><rect fill="grey" height="20" width="20" x="360" y="0" /><rect fill="grey" height="20" width="20" x="380" y="0" /><rect fill="grey" height="20" width="20" x="400" y="0" /><rect fill="grey" height="20" width="20" x="420" y="0" /><rect fill="grey" height="20" width="20" x="440" y="0" /><rect fill="grey" height="20" width="20" x="460" y="0" /><rect fill="grey" height="20" width="20" x="480" y="0" /><rect fill="grey" height="20" width="20" x="500" y="0" /><rect fill="grey" height="20" width="20" x="520" y="0" /><rect fill="grey" height="20" width="20" x="540" y="0" /><rect fill="grey" height="20" width="20" x="560" y="0" /><rect fill="grey" height="20" width="20" x="580" y="0" /><rect fill="grey" height="20" width="20" x="600" y="0" /><rect fill="grey" height="20" width="20" x="620" y="0" /><rect fill="grey" height="20" width="20" x="640" y="0" /><rect fill="grey" height="20" width="20" x="660" y="0" /><rect fill="grey" height="20" width="20" x="680" y="0" /><rect fill="grey" height="20" width="20" x="700" y="0" /><rect fill="grey" height="20" width="20" x="720" y="0" /><rect fill="grey" height="20" width="20" x="0" y="20" /><rect fill="grey" height="20" width="20" x="40" y="20" /><rect fill="grey" height="20" width="20" x="60" y="20" /><rect fill="grey" height="20" width="20" x="80" y="20" /><rect fill="grey" height="20" width="20" x="120" y="20" /><circle cx="150.0" cy="30.0" fill="#FF0000" r="6.666666666666667" /><circle cx="170.0" cy="30.0" fill="#FF0000" r="6.666666666666667" /><circle cx="190.0" cy="30.0" fill="#FF0000" r="6.666666666666667" /><rect fill="grey" height="20" width="20" x="200" y="20" /><rect fill="grey" height="20" width="20" x="220" y="20" /><rect fill="grey" height="20" width="20" x="240" y="20" /><rect fill="grey" height="20" width="20" x="260" y="20" /><rect fill="grey" height="20" width="20" x="280" y="20" /><rect fill="grey" height="20" width="20" x="300" y="20" /><rect fill="grey" height="20" width="20" x="340" y="20" /><rect fill="grey" height="20" width="20" x="440" y="20" /><rect fill="grey" height="20" width="20" x="560" y="20" /><rect fill="grey" height="20" width="20" x="680" y="20" /><rect fill="black" height="20" width="20" x="720" y="20" /><rect fill="grey" height="20" width="20" x="0" y="40" /><rect fill="grey" height="20" width="20" x="40" y="40" /><rect fill="grey" height="20" width="20" x="60" y="40" /><rect fill="grey" height="20" width="20" x="80" y="40" /><rect fill="grey" height="20" width="20" x="120" y="40" /><rect fill="grey" height="20" width="20" x="140" y="40" /><rect fill="grey" height="20" width="20" x="160" y="40" /><circle cx="190.0" cy="50.0" fill="#FF0000" r="6.666666666666667" /><rect fill="grey" height="20" width="20" x="200" y="40" /><rect fill="grey" height="20" width="20" x="340" y="40" /><rect fill="grey" height="20" width="20" x="400" y="40" /><rect fill="grey" height="20" width="20" x="500" y="40" /><rect fill="grey" height="20" width="20" x="620" y="40" /><rect fill="grey" height="20" width="20" x="720" y="40" /><rect fill="grey" height="20" width="20" x="0" y="60" /><rect fill="grey" height="20" width="20" x="40" y="60" /><rect fill="grey" height="20" width="20" x="60" y="60" /><rect fill="grey" height="20" width="20" x="80" y="60" /><rect fill="grey" height="20" width="20" x="120" y="60" /><rect fill="grey" height="20" width="20" x="160" y="60" /><circle cx="190.0" cy="70.0" fill="#FF0000" r="6.666666666666667" /><rect fill="grey" height="20" width="20" x="200" y="60" /><rect fill="grey" height="20" width="20" x="240" y="60" /><rect fill="grey" height="20" width="20" x="260" y="60" /><rect fill="grey" height="20" width="20" x="280" y="60" /><rect fill="grey" height="20" width="20" x="300" y="60" /><rect fill="grey" height="20" width="20" x="320" y="60" /><rect fill="grey" height="20" width="20" x="340" y="60" /><rect fill="grey" height="20" width="20" x="380" y="60" /><rect fill="grey" height="20" width="20" x="400" y="60" /><rect fill="grey" height="20" width="20" x="420" y="60" /><rect fill="grey" height="20" width="20" x="440" y="60" /><rect fill="grey" height="20" width="20" x="460" y="60" /><rect fill="grey" height="20" width="20" x="480" y="60" /><rect fill="grey" height="20" width="20" x="500" y="60" /><rect fill="grey" height="20" width="20" x="520" y="60" /><rect fill="grey" height="20" width="20" x="540" y="60" /><rect fill="grey" height="20" width="20" x="560" y="60" /><rect fill="grey" height="20" width="20" x="580" y="60" /><rect fill="grey" height="20" width="20" x="600" y="60" /><rect fill="grey" height="20" width="20" x="620" y="60" /><rect fill="grey" height="20" width="20" x="640" y="60" /><rect fill="grey" height="20" width="20" x="660" y="60" /><rect fill="grey" height="20" width="20" x="680" y="60" /><rect fill="grey" height="20" width="20" x="700" y="60" /><rect fill="grey" height="20" width="20" x="720" y="60" /><rect fill="grey" height="20" width="20" x="0" y="80" /><circle cx="190.0" cy="90.0" fill="#FF0000" r="6.666666666666667" /><rect fill="grey" height="20" width="20" x="260" y="80" /><rect fill="grey" height="20" width="20" x="420" y="80" /><rect fill="grey" height="20" width="20" x="520" y="80" /><rect fill="grey" height="20" width="20" x="600" y="80" /><rect fill="grey" height="20" width="20" x="680" y="80" /><rect fill="grey" height="20" width="20" x="720" y="80" /><rect fill="grey" height="20" width="20" x="0" y="100" /><rect fill="grey" height="20" width="20" x="60" y="100" /><rect fill="grey" height="20" width="20" x="100" y="100" /><rect fill="grey" height="20" width="20" x="120" y="100" /><circle cx="190.0" cy="110.0" fill="#FF0000" r="6.666666666666667" /><rect fill="grey" height="20" width="20" x="260" y="100" /><rect fill="grey" height="20" width="20" x="300" y="100" /><rect fill="grey" height="20" width="20" x="320" y="100" /><rect fill="grey" height="20" width="20" x="340" y="100" /><rect fill="grey" height="20" width="20" x="360" y="100" /><rect fill="grey" height="20" width="20" x="380" y="100" /><rect fill="grey" height="20" width="20" x="420" y="100" /><rect fill="grey" height="20" width="20" x="480" y="100" /><rect fill="grey" height="20" width="20" x="520" y="100" /><rect fill="grey" height="20" width="20" x="560" y="100" /><rect fill="grey" height="20" width="20" x="600" y="100" /><rect fill="grey" height="20" width="20" x="640" y="100" /><rect fill="grey" height="20" width="20" x="680" y="100" /><rect fill="grey" height="20" width="20" x="720" y="100" /><rect fill="grey" height="20" width="20" x="0" y="120" /><rect fill="grey" height="20" width="20" x="60" y="120" /><circle cx="190.0" cy="130.0" fill="#FF0000" r="6.666666666666667" /><rect fill="grey" height="20" width="20" x="260" y="120" /><rect fill="grey" height="20" width="20" x="340" y="120" /><rect fill="grey" height="20" width="20" x="420" y="120" /><rect fill="grey" height="20" width="20" x="480" y="120" /><rect fill="grey" height="20" width="20" x="520" y="120" /><rect fill="grey" height="20" width="20" x="560" y="120" /><rect fill="grey" height="20" width="20" x="600" y="120" /><rect fill="grey" height="20" width="20" x="640" y="120" /><rect fill="grey" height="20" width="20" x="720" y="120" /><rect fill="grey" height="20" width="20" x="0" y="140" /><rect fill="grey" height="20" width="20" x="60" y="140" /><rect fill="grey" height="20" width="20" x="80" y="140" /><rect fill="grey" height="20" width="20" x="100" y="140" /><rect fill="grey" height="20" width="20" x="120" y="140" /><rect fill="grey" height="20" width="20" x="140" y="140" /><rect fill="grey" height="20" width="20" x="160" y="140" /><circle cx="190.0" cy="150.0" fill="#FF0000" r="6.666666666666667" /><rect fill="grey" height="20" width="20" x="240" y="140" /><rect fill="grey" height="20" width="20" x="260" y="140" /><rect fill="grey" height="20" width="20" x="280" y="140" /><rect fill="grey" height="20" width="20" x="340" y="140" /><rect fill="grey" height="20" width="20" x="400" y="140" /><rect fill="grey" height="20" width="20" x="420" y="140" /><rect fill="grey" height="20" width="20" x="440" y="140" /><rect fill="grey" height="20" width="20" x="480" y="140" /><rect fill="grey" height="20" width="20" x="520" y="140" /><rect fill="grey" height="20" width="20" x="560" y="140" /><rect fill="grey" height="20" width="20" x="600" y="140" /><rect fill="grey" height="20" width="20" x="640" y="140" /><rect fill="grey" height="20" width="20" x="660" y="140" /><rect fill="grey" height="20" width="20" x="680" y="140" /><rect fill="grey" height="20" width="20" x="720" y="140" /><rect fill="grey" height="20" width="20" x="0" y="160" /><rect fill="grey" height="20" width="20" x="60" y="160" /><rect fill="grey" height="20" width="20" x="160" y="160" /><circle cx="190.0" cy="170.0" fill="#FF0000" r="6.666666666666667" /><circle cx="210.0" cy="170.0" fill="#FF0000" r="6.666666666666667" /><circle cx="230.0" cy="170.0" fill="#FF0000" r="6.666666666666667" /><circle cx="250.0" cy="170.0" fill="#FF0000" r="6.666666666666667" /><circle cx="270.0" cy="170.0" fill="#FF0000" r="6.666666666666667" /><circle cx="290.0" cy="170.0" fill="#FF0000" r="6.666666666666667" /><circle cx="310.0" cy="170.0" fill="#FF0000" r="6.666666666666667" /><circle cx="330.0" cy="170.0" fill="#FF0000" r="6.666666666666667" /><circle cx="350.0" cy="170.0" fill="#FF0000" r="6.666666666666667" /><circle cx="370.0" cy="170.0" fill="#FF0000" r="6.666666666666667" /><circle cx="390.0" cy="170.0" fill="#FF0000" r="6.666666666666667" /><circle cx="410.0" cy="170.0" fill="#FF0000" r="6.666666666666667" /><circle cx="430.0" cy="170.0" fill="#FF0000" r="6.666666666666667" /><rect fill="grey" height="20" width="20" x="480" y="160" /><rect fill="grey" height="20" width="20" x="560" y="160" /><rect fill="grey" height="20" width="20" x="640" y="160" /><rect fill="grey" height="20" width="20" x="720" y="160" /><rect fill="grey" height="20" width="20" x="0" y="180" /><rect fill="grey" height="20" width="20" x="60" y="180" /><rect fill="grey" height="20" width="20" x="100" y="180" /><rect fill="grey" height="20" width="20" x="120" y="180" /><rect fill="grey" height="20" width="20" x="160" y="180" /><rect fill="grey" height="20" width="20" x="180" y="180" /><rect fill="grey" height="20" width="20" x="200" y="180" /><rect fill="grey" height="20" width="20" x="220" y="180" /><rect fill="grey" height="20" width="20" x="240" y="180" /><rect fill="grey" height="20" width="20" x="260" y="180" /><rect fill="grey" height="20" width="20" x="280" y="180" /><rect fill="grey" height="20" width="20" x="300" y="180" /><rect fill="grey" height="20" width="20" x="380" y="180" /><rect fill="grey" height="20" width="20" x="400" y="180" /><circle cx="430.0" cy="190.0" fill="#FF0000" r="6.666666666666667" /><rect fill="grey" height="20" width="20" x="440" y="180" /><rect fill="grey" height="20" width="20" x="460" y="180" /><rect fill="grey" height="20" width="20" x="480" y="180" /><rect fill="grey" height="20" width="20" x="500" y="180" /><rect fill="grey" height="20" width="20" x="520" y="180" /><rect fill="grey" height="20" width="20" x="540" y="180" /><rect fill="grey" height="20" width="20" x="560" y="180" /><rect fill="grey" height="20" width="20" x="580" y="180" /><rect fill="grey" height="20" width="20" x="600" y="180" /><rect fill="grey" height="20" width="20" x="620" y="180" /><rect fill="grey" height="20" width="20" x="640" y="180" /><rect fill="grey" height="20" width="20" x="720" y="180" /><rect fill="grey" height="20" width="20" x="0" y="200" /><rect fill="grey" height="20" width="20" x="100" y="200" /><rect fill="grey" height="20" width="20" x="120" y="200" /><rect fill="grey" height="20" width="20" x="340" y="200" /><rect fill="grey" height="20" width="20" x="360" y="200" /><rect fill="grey" height="20" width="20" x="380" y="200" /><circle cx="430.0" cy="210.0" fill="#FF0000" r="6.666666666666667" /><circle cx="450.0" cy="210.0" fill="#FF0000" r="6.666666666666667" /><circle cx="470.0" cy="210.0" fill="#FF0000" r="6.666666666666667" /><rect fill="grey" height="20" width="20" x="720" y="200" /><rect fill="grey" height="20" width="20" x="0" y="220" /><rect fill="grey" height="20" width="20" x="40" y="220" /><rect fill="grey" height="20" width="20" x="60" y="220" /><rect fill="grey" height="20" width="20" x="100" y="220" /><rect fill="grey" height="20" width="20" x="120" y="220" /><rect fill="grey" height="20" width="20" x="140" y="220" /><rect fill="grey" height="20" width="20" x="160" y="220" /><rect fill="grey" height="20" width="20" x="180" y="220" /><rect fill="grey" height="20" width="20" x="200" y="220" /><rect fill="grey" height="20" width="20" x="220" y="220" /><rect fill="grey" height="20" width="20" x="240" y="220" /><rect fill="grey" height="20" width="20" x="260" y="220" /><rect fill="grey" height="20" width="20" x="280" y="220" /><rect fill="grey" height="20" width="20" x="300" y="220" /><rect fill="grey" height="20" width="20" x="320" y="220" /><rect fill="grey" height="20" width="20" x="340" y="220" /><rect fill="grey" height="20" width="20" x="400" y="220" /><rect fill="grey" height="20" width="20" x="420" y="220" /><rect fill="grey" height="20" width="20" x="440" y="220" /><circle cx="470.0" cy="230.0" fill="#FF0000" r="6.666666666666667" /><rect fill="grey" height="20" width="20" x="520" y="220" /><rect fill="grey" height="20" width="20" x="540" y="220" /><rect fill="grey" height="20" width="20" x="560" y="220" /><rect fill="grey" height="20" width="20" x="580" y="220" /><rect fill="grey" height="20" width="20" x="660" y="220" /><rect fill="grey" height="20" width="20" x="680" y="220" /><rect fill="grey" height="20" width="20" x="720" y="220" /><rect fill="grey" height="20" width="20" x="0" y="240" /><rect fill="grey" height="20" width="20" x="60" y="240" /><rect fill="grey" height="20" width="20" x="80" y="240" /><rect fill="grey" height="20" width="20" x="100" y="240" /><rect fill="grey" height="20" width="20" x="140" y="240" /><rect fill="grey" height="20" width="20" x="160" y="240" /><rect fill="grey" height="20" width="20" x="360" y="240" /><rect fill="grey" height="20" width="20" x="420" y="240" /><circle cx="470.0" cy="250.0" fill="#FF0000" r="6.666666666666667" /><rect fill="grey" height="20" width="20" x="480" y="240" /><rect fill="grey" height="20" width="20" x="720" y="240" /><rect fill="grey" height="20" width="20" x="0" y="260" /><rect fill="grey" height="20" width="20" x="60" y="260" /><rect fill="grey" height="20" width="20" x="140" y="260" /><rect fill="grey" height="20" width="20" x="160" y="260" /><rect fill="grey" height="20" width="20" x="200" y="260" /><rect fill="grey" height="20" width="20" x="220" y="260" /><rect fill="grey" height="20" width="20" x="240" y="260" /><rect fill="grey" height="20" width="20" x="260" y="260" /><rect fill="grey" height="20" width="20" x="380" y="260" /><circle cx="470.0" cy="270.0" fill="#FF0000" r="6.666666666666667" /><rect fill="grey" height="20" width="20" x="480" y="260" /><rect fill="grey" height="20" width="20" x="620" y="260" /><rect fill="grey" height="20" width="20" x="640" y="260" /><rect fill="grey" height="20" width="20" x="660" y="260" /><rect fill="grey" height="20" width="20" x="720" y="260" /><rect fill="grey" height="20" width="20" x="0" y="280" /><rect fill="grey" height="20" width="20" x="60" y="280" /><rect fill="grey" height="20" width="20" x="100" y="280" /><rect fill="grey" height="20" width="20" x="120" y="280" /><rect fill="grey" height="20" width="20" x="140" y="280" /><rect fill="grey" height="20" width="20" x="160" y="280" /><rect fill="grey" height="20" width="20" x="200" y="280" /><rect fill="grey" height="20" width="20" x="260" y="280" /><rect fill="grey" height="20" width="20" x="380" y="280" /><circle cx="470.0" cy="290.0" fill="#FF0000" r="6.666666666666667" /><rect fill="grey" height="20" width="20" x="480" y="280" /><rect fill="grey" height="20" width="20" x="500" y="280" /><rect fill="grey" height="20" width="20" x="520" y="280" /><rect fill="grey" height="20" width="20" x="540" y="280" /><rect fill="grey" height="20" width="20" x="560" y="280" /><rect fill="grey" height="20" width="20" x="720" y="280" /><rect fill="grey" height="20" width="20" x="0" y="300" /><rect fill="grey" height="20" width="20" x="60" y="300" /><rect fill="grey" height="20" width="20" x="200" y="300" /><rect fill="grey" height="20" width="20" x="340" y="300" /><rect fill="grey" height="20" width="20" x="360" y="300" /><rect fill="grey" height="20" width="20" x="380" y="300" /><circle cx="450.0" cy="310.0" fill="#FF0000" r="6.666666666666667" /><circle cx="470.0" cy="310.0" fill="#FF0000" r="6.666666666666667" /><rect fill="grey" height="20" width="20" x="620" y="300" /><rect fill="grey" height="20" width="20" x="640" y="300" /><rect fill="grey" height="20" width="20" x="720" y="300" /><rect fill="grey" height="20" width="20" x="0" y="320" /><rect fill="grey" height="20" width="20" x="60" y="320" /><rect fill="grey" height="20" width="20" x="80" y="320" /><rect fill="grey" height="20" width="20" x="100" y="320" /><rect fill="grey" height="20" width="20" x="120" y="320" /><rect fill="grey" height="20" width="20" x="140" y="320" /><rect fill="grey" height="20" width="20" x="380" y="320" /><circle cx="450.0" cy="330.0" fill="#FF0000" r="6.666666666666667" /><rect fill="grey" height="20" width="20" x="460" y="320" /><rect fill="grey" height="20" width="20" x="480" y="320" /><rect fill="grey" height="20" width="20" x="560" y="320" /><rect fill="grey" height="20" width="20" x="640" y="320" /><rect fill="grey" height="20" width="20" x="720" y="320" /><rect fill="grey" height="20" width="20" x="0" y="340" /><circle cx="370.0" cy="350.0" fill="#FF0000" r="6.666666666666667" /><circle cx="390.0" cy="350.0" fill="#FF0000" r="6.666666666666667" /><circle cx="410.0" cy="350.0" fill="#FF0000" r="6.666666666666667" /><circle cx="430.0" cy="350.0" fill="#FF0000" r="6.666666666666667" /><circle cx="450.0" cy="350.0" fill="#FF0000" r="6.666666666666667" /><rect fill="grey" height="20" width="20" x="720" y="340" /><rect fill="grey" height="20" width="20" x="0" y="360" /><rect fill="grey" height="20" width="20" x="20" y="360" /><rect fill="grey" height="20" width="20" x="40" y="360" /><rect fill="grey" height="20" width="20" x="60" y="360" /><rect fill="grey" height="20" width="20" x="80" y="360" /><rect fill="grey" height="20" width="20" x="100" y="360" /><rect fill="grey" height="20" width="20" x="120" y="360" /><rect fill="grey" height="20" width="20" x="140" y="360" /><rect fill="grey" height="20" width="20" x="160" y="360" /><rect fill="grey" height="20" width="20" x="180" y="360" /><rect fill="grey" height="20" width="20" x="200" y="360" /><rect fill="grey" height="20" width="20" x="220" y="360" /><rect fill="grey" height="20" width="20" x="240" y="360" /><rect fill="grey" height="20" width="20" x="260" y="360" /><rect fill="grey" height="20" width="20" x="280" y="360" /><rect fill="grey" height="20" width="20" x="300" y="360" /><rect fill="grey" height="20" width="20" x="320" y="360" /><rect fill="grey" height="20" width="20" x="340" y="360" /><circle cx="370.0" cy="370.0" fill="#0000FF" r="10.0" /><rect fill="grey" height="20" width="20" x="380" y="360" /><rect fill="grey" height="20" width="20" x="400" y="360" /><rect fill="grey" height="20" width="20" x="420" y="360" /><rect fill="grey" height="20" width="20" x="440" y="360" /><rect fill="grey" height="20" width="20" x="460" y="360" /><rect fill="grey" height="20" width="20" x="480" y="360" /><rect fill="grey" height="20" width="20" x="500" y="360" /><rect fill="grey" height="20" width="20" x="520" y="360" /><rect fill="grey" height="20" width="20" x="540" y="360" /><rect fill="grey" height="20" width="20" x="560" y="360" /><rect fill="grey" height="20" width="20" x="580" y="360" /><rect fill="grey" height="20" width="20" x="600" y="360" /><rect fill="grey" height="20" width="20" x="620" y="360" /><rect fill="grey" height="20" width="20" x="640" y="360" /><rect fill="grey" height="20" width="20" x="660" y="360" /><rect fill="grey" height="20" width="20" x="680" y="360" /><rect fill="grey" height="20" width="20" x="700" y="360" /><rect fill="grey" height="20" width="20" x="720" y="360" /></svg>